<?xml version="1.0" standalone="no"?>
<!DOCTYPE svg PUBLIC "-//W3C//DTD SVG 20010904//EN"
 "http://www.w3.org/TR/2001/REC-SVG-20010904/DTD/svg10.dtd">
<svg version="1.0" xmlns="http://www.w3.org/2000/svg"
 width="1232.000000pt" height="1280.000000pt" viewBox="0 0 1232.000000 1280.000000"
 preserveAspectRatio="xMidYMid meet">
<metadata>
Created by potrace 1.15, written by Peter Selinger 2001-2017
</metadata>
<g transform="translate(0.000000,1280.000000) scale(0.100000,-0.100000)"
fill="#000000" stroke="none">
<path d="M3030 12793 c-696 -47 -1348 -259 -1611 -522 -110 -110 -126 -167
-109 -371 39 -445 279 -1452 723 -3038 l54 -192 -46 -13 c-25 -7 -200 -54
-388 -103 -260 -67 -343 -93 -343 -104 1 -8 59 -217 129 -465 l128 -450 -51
-7 c-28 -4 -98 -17 -154 -29 -57 -11 -105 -19 -107 -17 -1 2 -10 109 -19 238
-113 1556 -347 2729 -638 3197 -180 289 -428 360 -534 152 -46 -92 -58 -167
-58 -379 -1 -243 23 -446 100 -830 138 -699 463 -1755 742 -2412 l49 -117 -66
-44 c-226 -151 -360 -365 -406 -651 -19 -117 -19 -225 0 -373 82 -628 409
-1086 921 -1293 77 -30 100 -44 105 -62 4 -13 12 -84 18 -158 47 -565 263
-1450 538 -2205 335 -919 700 -1469 988 -1493 118 -10 230 65 274 182 45 120
49 247 15 466 -88 574 -565 1672 -1286 2961 l-104 185 131 12 c71 6 163 21
204 32 40 11 76 19 78 16 6 -5 17 -46 224 -776 89 -316 163 -576 164 -578 2
-2 495 165 757 256 l87 31 86 -267 c720 -2243 1202 -3308 1581 -3500 107 -54
171 -66 349 -66 172 0 260 12 459 64 581 150 1324 556 1653 904 93 98 135 165
160 257 26 95 23 390 -6 604 -90 651 -338 1605 -782 3004 -55 172 -99 315 -97
316 2 1 37 17 78 35 334 145 715 333 1137 561 870 470 1621 920 2296 1375 125
85 230 154 233 154 2 0 71 -54 152 -121 413 -339 741 -552 972 -630 124 -42
242 -46 306 -12 81 43 152 153 185 283 20 78 17 347 -5 475 -58 345 -212 807
-447 1343 -137 311 -606 1231 -807 1582 -390 682 -727 1008 -1071 1036 -254
21 -412 -114 -511 -435 -53 -173 -100 -503 -100 -702 0 -43 -5 -81 -10 -84 -6
-4 -264 -45 -573 -91 -657 -98 -1348 -201 -2100 -314 -642 -96 -672 -100 -945
-146 -117 -20 -215 -34 -217 -32 -1 1 -50 134 -108 293 -502 1384 -974 2536
-1144 2791 -91 137 -384 241 -768 274 -110 9 -355 11 -465 3z"/>
</g>
</svg>
